<svg width="886" height="200" viewBox="0 0 886 200" fill="none" xmlns="http://www.w3.org/2000/svg">
    <path d="M314.264 198.801C312.343 198.801 309.671 197.151 309.131 196.069C308.5 194.809 308.111 193.488 307.96 192.136C307.299 186.853 310.721 177.637 318.797 177.637C320.508 177.637 321.289 179.108 321.379 179.859C321.409 180.219 321.379 181.54 319.968 181.54C319.849 181.54 319.728 181.509 319.639 181.509C318.407 181.509 314.804 183.611 313.244 187.273C312.673 188.624 312.372 190.216 312.583 191.957C312.703 192.917 312.973 193.937 313.455 195.019C314.685 194.239 317.387 191.716 318.347 188.504C317.597 188.624 317.476 188.984 316.816 188.984C315.825 188.984 314.324 188.055 314.085 187.063C313.993 186.492 318.917 184.211 319.879 184.091C320.088 184.06 320.749 184 321.44 184C322.94 184 324.201 184.932 324.261 185.381C324.711 189.135 317.957 198.801 314.264 198.801Z" fill="#F8AB24"/>
    <path d="M334.739 184.601C332.847 184.541 330.446 187.604 330.626 189.285C330.656 189.375 330.656 189.525 330.806 189.525C331.676 189.525 333.238 188.624 333.718 187.933C334.318 187.064 334.77 185.472 334.859 184.601H334.739ZM332.548 193.488C329.275 193.488 326.963 191.025 326.694 188.595C326.332 185.772 328.464 180.759 333.178 180.759C333.687 180.759 334.559 180.789 335.37 181.36C336.87 181.509 338.822 182.559 339.182 185.652C339.242 186.013 339.242 186.403 339.242 186.823C339.272 189.825 336.06 193.488 332.548 193.488Z" fill="#F8AB24"/>
    <path d="M349.9 195.439C349.54 195.499 349.06 195.53 348.548 195.53C344.256 195.53 343.116 193.248 342.696 189.826C342.485 188.144 342.545 180.939 345.426 180.939C346.178 180.939 348.489 181.75 348.638 183.01C348.638 183.16 348.638 183.34 348.548 183.52C347.498 186.012 347.348 189.464 347.588 191.356C347.648 191.896 347.709 192.376 347.798 192.738C350.05 192.076 353.533 185.172 353.653 180.428C353.682 179.258 355.573 178.778 356.445 178.778C358.366 178.778 358.545 180.098 358.666 180.848C359.206 185.323 354.704 194.658 349.9 195.439Z" fill="#F8AB24"/>
    <path d="M369.144 183.37C368.422 183.37 367.704 183.401 367.042 183.43C366.742 184.601 366.592 186.882 366.592 188.324C369.204 187.513 373.766 185.142 374.277 183.91C373.556 183.641 371.666 183.37 369.144 183.37ZM370.434 190.606C371.576 191.205 373.197 191.896 374.397 192.586C374.728 192.768 375.148 193.126 375.209 193.697C375.358 194.749 373.706 195.378 372.686 195.378C371.005 195.378 368.484 192.888 366.982 192.046C367.162 192.708 367.102 193.637 367.133 193.938C367.282 195.26 366.172 195.858 365.482 195.858C364.761 195.858 363.709 195.589 363.078 194.749C362.389 193.817 361.789 191.686 361.548 189.614C361.458 188.985 361.428 188.354 361.398 187.724C361.338 184.601 362.449 180.278 362.96 180.218C364.792 180.008 366.592 179.918 368.213 179.918C371.005 179.918 373.468 180.158 374.637 180.518C376.498 181.089 379.321 182.501 379.561 184.45C379.832 186.882 373.377 189.525 370.434 190.606Z" fill="#F8AB24"/>
    <path d="M405.709 191.146C405.409 192.257 403.397 192.947 402.557 192.947C402.376 192.947 401.385 192.918 400.996 192.047C400.485 190.906 400.247 189.045 399.855 188.025L399.645 187.453C398.264 188.685 395.561 191.957 394.753 192.857C394.181 193.458 393.372 193.609 392.711 193.609C391.869 193.609 390.789 193.367 390.128 192.707C389.497 192.077 388.928 187.513 388.659 186.253C387.036 188.654 385.355 191.777 384.575 193.038C384.125 193.729 383.104 193.847 382.624 193.847C381.844 193.847 380.701 193.427 380.583 192.437V192.137C380.823 191.055 386.585 180.879 387.516 179.798C388.177 179.047 389.199 178.387 390.279 178.387C391.179 178.387 392.051 178.898 392.32 179.827C392.741 181.089 393.191 185.081 393.971 188.265C395.472 186.734 397.124 184.451 397.724 183.851C398.505 183.101 399.855 182.379 401.025 182.379C401.357 182.379 401.807 182.41 402.227 182.681C403.397 183.37 405.559 188.925 405.74 190.455C405.769 190.635 405.769 190.906 405.709 191.146Z" fill="#F8AB24"/>
    <path d="M419.069 180.038C417.479 180.368 415.857 180.578 414.267 180.969C414.056 182.501 413.756 185.893 413.576 187.993C414.507 187.694 415.408 187.424 416.459 187.424C418.409 187.393 420.931 187.844 421.081 188.985C420.991 190.154 419.34 190.905 418.409 190.905H418.109C417.028 190.905 414.777 191.626 413.667 191.956C413.667 192.046 413.696 192.106 413.696 192.197C413.756 192.646 413.696 193.848 413.756 194.268C414.836 193.998 415.977 193.608 417.119 193.608C418.289 193.608 421.2 194.808 421.292 195.498C421.501 197.24 415.977 198.29 414.417 198.712C414.028 198.83 413.547 198.952 413.127 198.952C410.004 198.952 409.313 195.229 409.043 193.097C408.503 188.624 409.043 184.121 409.613 179.798C409.463 179.438 409.283 179.078 409.253 178.686C409.192 178.237 409.313 177.277 410.424 177.126C411.925 176.916 413.365 176.616 414.656 176.345C415.887 176.106 417.119 175.896 418.019 175.896C419.129 175.896 422.192 177.126 422.283 178.297C422.311 178.748 420.901 179.649 419.069 180.038Z" fill="#F8AB24"/>
    <path d="M437.984 177.547C436.994 178.027 434.022 178.357 432.82 178.567C432.582 178.627 432.34 178.507 432.311 178.567C432.07 179.048 431.68 193.277 431.62 195.169C431.56 196.94 431.499 198.411 431.44 198.711C431.29 199.341 430.539 199.672 429.788 199.672C428.438 199.672 426.846 198.771 426.667 197.211C426.516 196.04 426.727 191.147 426.936 186.733C427.056 183.941 427.207 181.24 427.296 179.589C426.456 179.799 425.556 180.009 424.624 179.979C423.514 179.979 421.232 179.017 421.054 177.637C420.843 175.985 422.974 176.256 424.055 176.076C425.106 175.896 426.306 175.476 428.138 175.085C430.059 174.665 432.642 174.305 436.362 174.305C437.324 174.305 438.644 174.936 438.795 176.135C438.884 176.887 438.434 177.336 437.984 177.547Z" fill="#F8AB24"/>
    <path d="M460.65 190.966C460.139 191.146 458.369 191.446 456.627 191.687C455.426 191.867 454.135 192.046 453.265 192.196C453.265 193.127 453.205 196.4 452.934 197.059C452.695 197.66 451.974 198.44 450.894 198.44C450.653 198.44 450.383 198.38 450.113 198.291C449.753 198.142 448.793 195.979 448.491 193.548C448.251 191.626 448.101 189.554 448.101 188.744C448.131 187.063 449.122 176.736 449.543 176.646C452.065 175.986 454.465 175.624 455.966 175.624C457.138 175.624 458.729 175.895 459.75 177.096C460.05 177.456 460.289 177.816 460.321 178.176C460.41 178.898 459.959 179.287 459.539 179.498C458.638 179.888 456.807 179.948 455.847 180.099C455.126 180.188 454.437 180.308 453.745 180.488C453.295 182.8 453.175 186.672 453.205 188.775C454.615 188.504 456.057 188.174 457.587 188.174C458.729 188.174 461.281 188.443 461.43 189.735C461.49 190.366 461.099 190.786 460.65 190.966Z" fill="#273F4A"/>
    <path d="M470.527 183.37C469.806 183.37 469.086 183.401 468.424 183.43C468.126 184.601 467.975 186.882 467.975 188.324C470.587 187.513 475.15 185.142 475.66 183.91C474.939 183.641 473.05 183.37 470.527 183.37ZM471.816 190.606C472.959 191.205 474.579 191.896 475.779 192.586C476.111 192.768 476.531 193.126 476.591 193.697C476.74 194.749 475.09 195.378 474.068 195.378C472.388 195.378 469.867 192.888 468.364 192.046C468.546 192.708 468.484 193.637 468.515 193.938C468.666 195.26 467.554 195.858 466.864 195.858C466.143 195.858 465.092 195.589 464.462 194.749C463.772 193.817 463.172 191.686 462.931 189.614C462.842 188.985 462.811 188.354 462.782 187.724C462.72 184.601 463.832 180.278 464.342 180.218C466.174 180.008 467.975 179.918 469.596 179.918C472.388 179.918 474.85 180.158 476.02 180.518C477.882 181.089 480.703 182.501 480.943 184.45C481.214 186.882 474.76 189.525 471.816 190.606Z" fill="#273F4A"/>
    <path d="M487.64 194.058C487.399 194.238 487.068 194.359 486.65 194.359C485.719 194.359 484.578 193.007 484.188 192.287C483.978 191.867 483.858 191.176 483.798 190.575C483.498 188.234 483.467 183.46 483.887 182.71C484.188 182.14 485.028 181.959 485.599 181.959C486.2 181.959 487.851 182.14 488.42 183.311C488.6 183.671 488.691 184.18 488.751 184.631C489.051 187.243 488.451 193.518 487.64 194.058Z" fill="#273F4A"/>
    <path d="M502.14 180.038C500.55 180.368 498.928 180.578 497.338 180.969C497.127 182.501 496.827 185.893 496.647 187.993C497.578 187.694 498.479 187.424 499.53 187.424C501.48 187.393 504.002 187.844 504.152 188.985C504.062 190.154 502.411 190.905 501.48 190.905H501.18C500.099 190.905 497.848 191.626 496.738 191.956C496.738 192.046 496.766 192.106 496.766 192.197C496.827 192.646 496.766 193.848 496.827 194.268C497.907 193.998 499.048 193.608 500.19 193.608C501.36 193.608 504.271 194.808 504.363 195.498C504.572 197.24 499.048 198.29 497.488 198.712C497.099 198.83 496.616 198.952 496.198 198.952C493.075 198.952 492.384 195.229 492.114 193.097C491.574 188.624 492.114 184.121 492.684 179.798C492.534 179.438 492.354 179.078 492.324 178.686C492.263 178.237 492.384 177.277 493.494 177.126C494.996 176.916 496.436 176.616 497.727 176.345C498.958 176.106 500.19 175.896 501.09 175.896C502.2 175.896 505.263 177.126 505.354 178.297C505.382 178.748 503.972 179.649 502.14 180.038Z" fill="#273F4A"/>
    <path d="M514.45 181.599C513.188 181.599 512.378 181.63 512.198 181.719C511.987 181.84 511.987 185.742 512.378 188.894C512.408 189.164 512.468 189.466 512.498 189.704C515.5 188.564 524.956 184.691 525.047 182.71C523.726 182.17 518.142 181.599 514.45 181.599ZM511.358 195.288C511.116 195.348 510.816 195.408 510.547 195.408C509.075 195.408 508.384 194.328 508.264 193.398C508.235 193.036 508.235 192.676 508.296 192.316C507.904 191.596 507.724 190.636 507.635 189.795C507.306 187.243 507.424 183.491 507.815 181.059C507.035 180.519 506.284 179.767 506.223 179.378C506.134 178.687 506.644 178.116 507.664 178.056C509.375 177.966 511.176 177.906 512.978 177.906C518.532 177.906 524.476 178.387 526.427 179.528C527.839 180.338 529.579 181.388 529.82 183.4C530.362 187.814 511.987 195.139 511.358 195.288Z" fill="#273F4A"/>
    <path d="M548.944 196.009C548.494 196.16 547.983 196.22 547.472 196.22C544.442 196.22 542.07 194.299 541.74 191.597C541.228 187.424 546.723 177.336 552.998 177.336C553.987 177.336 555.668 177.967 555.819 179.257C555.91 180.039 555.338 180.459 554.828 180.609C553.507 180.999 545.671 187.575 546.303 192.287V192.376C547.923 192.077 551.586 190.185 552.367 189.044C552.696 188.624 553.208 188.413 553.747 188.413C554.828 188.413 555.759 189.225 555.879 190.305C556.12 192.228 551.286 195.229 548.944 196.009Z" fill="#273F4A"/>
    <path d="M576.233 186.823C576.204 188.114 576.262 195.17 575.722 196.01C575.424 196.49 574.912 196.64 574.461 196.64C573.472 196.64 571.46 195.53 571.28 194.479C571.16 193.788 571.4 192.798 571.43 192.107L571.46 191.206L564.316 192.047C564.316 193.187 564.826 195.74 562.905 195.74C562.064 195.74 560.862 195.259 560.262 194.328C559.962 193.878 559.722 192.767 559.572 191.507C559.212 188.595 559.001 183.1 559.782 181.959C560.113 181.51 560.622 181.388 561.044 181.388C562.122 181.388 564.016 182.411 564.165 183.731C564.256 184.3 564.256 186.672 564.226 188.294C566.296 187.903 569.748 187.334 571.549 187.183C571.43 186.283 571.49 183.911 571.49 183.13C571.49 181.69 571.581 180.158 571.849 179.468C572.092 178.838 572.75 178.687 573.141 178.687C574.342 178.687 576.144 179.798 576.293 181.119C576.384 181.87 576.324 184.212 576.233 186.823Z" fill="#273F4A"/>
    <path d="M584.311 194.058C584.069 194.238 583.739 194.359 583.32 194.359C582.389 194.359 581.248 193.007 580.859 192.287C580.648 191.867 580.528 191.176 580.468 190.575C580.168 188.234 580.137 183.46 580.557 182.71C580.859 182.14 581.699 181.959 582.269 181.959C582.871 181.959 584.521 182.14 585.091 183.311C585.271 183.671 585.361 184.18 585.421 184.631C585.721 187.243 585.121 193.518 584.311 194.058Z" fill="#273F4A"/>
    <path d="M596.259 196.009C595.808 196.16 595.297 196.22 594.787 196.22C591.756 196.22 589.384 194.299 589.055 191.597C588.543 187.424 594.036 177.336 600.312 177.336C601.301 177.336 602.983 177.967 603.133 179.257C603.224 180.039 602.652 180.459 602.143 180.609C600.821 180.999 592.985 187.575 593.617 192.287V192.376C595.237 192.077 598.9 190.185 599.681 189.044C600.011 188.624 600.523 188.413 601.061 188.413C602.143 188.413 603.073 189.225 603.193 190.305C603.433 192.228 598.6 195.229 596.259 196.009Z" fill="#273F4A"/>
    <path d="M622.618 183.461C621.956 183.881 617.604 186.762 614.783 188.865C616.164 189.405 617.575 189.825 618.956 190.366C619.916 190.725 620.818 191.267 620.938 192.317C621.088 193.458 620.336 193.969 619.315 193.969C616.944 193.969 614.723 192.798 612.591 191.807C612.68 192.947 612.74 194.327 612.771 194.659C612.862 195.71 611.811 195.949 611.3 195.949C610.459 195.949 608.75 195.469 608.118 194.358C607.968 194.149 607.907 193.787 607.848 193.458C607.548 191.057 607.218 180.729 607.699 178.567C607.907 177.517 609.019 177.395 609.439 177.395C610.07 177.395 612.442 177.997 612.591 179.378C612.651 179.858 612.651 183.611 612.62 185.833C614.182 184.031 617.875 180.639 620.487 180.489C621.388 180.458 623.007 181.33 623.128 182.41C623.19 182.83 623.007 183.221 622.618 183.461Z" fill="#273F4A"/>
    <path d="M635.196 180.038C633.605 180.368 631.984 180.578 630.393 180.969C630.183 182.501 629.883 185.893 629.703 187.993C630.633 187.694 631.535 187.424 632.585 187.424C634.535 187.393 637.057 187.844 637.208 188.985C637.117 190.154 635.467 190.905 634.535 190.905H634.236C633.155 190.905 630.904 191.626 629.793 191.956C629.793 192.046 629.823 192.106 629.823 192.197C629.883 192.646 629.823 193.848 629.883 194.268C630.963 193.998 632.104 193.608 633.245 193.608C634.416 193.608 637.327 194.808 637.419 195.498C637.628 197.24 632.104 198.29 630.544 198.712C630.153 198.83 629.672 198.952 629.252 198.952C626.131 198.952 625.44 195.229 625.169 193.097C624.629 188.624 625.169 184.121 625.74 179.798C625.589 179.438 625.409 179.078 625.38 178.686C625.319 178.237 625.44 177.277 626.551 177.126C628.052 176.916 629.492 176.616 630.783 176.345C632.013 176.106 633.245 175.896 634.145 175.896C635.256 175.896 638.319 177.126 638.409 178.297C638.437 178.748 637.028 179.649 635.196 180.038Z" fill="#273F4A"/>
    <path d="M657.894 182.29C657.714 185.742 657.354 189.165 657.593 192.647C657.654 193.849 655.671 194.599 654.711 194.599C654.411 194.599 653.931 194.569 653.481 194.298C652.701 193.849 650.63 191.897 648.587 189.975C647.627 189.074 646.695 188.174 645.735 187.273C645.826 190.155 645.855 193.969 645.766 195.049C645.706 195.71 645.255 196.341 644.294 196.341C642.674 196.341 641.142 194.418 641.022 193.367C640.842 191.866 641.293 183.431 641.113 181.449C640.991 180.249 642.493 179.767 643.303 179.767C643.605 179.767 644.143 179.798 644.625 180.129C645.015 180.398 647.357 182.591 649.667 184.813C650.809 185.893 651.95 187.003 652.91 187.903C652.821 184.842 652.73 179.889 653.03 178.327C653.181 177.546 653.871 177.247 654.502 177.247C656.122 177.247 657.683 178.778 657.894 180.189C657.954 180.669 657.923 181.449 657.894 182.29Z" fill="#273F4A"/>
    <path d="M676.987 184.722C676.987 184.722 678.487 182.71 677.047 182.591C675.607 182.5 676.987 184.722 676.987 184.722ZM676.387 190.096C676.387 190.096 674.946 191.716 675.276 191.867C675.607 192.016 677.107 191.026 677.107 191.026L676.387 190.096ZM682.902 191.627L682.962 191.716C683.651 192.438 684.012 193.096 684.131 194.059C684.191 194.508 683.922 196.31 682.871 196.31C682.271 196.31 680.35 194.628 679.208 193.428C678.367 193.998 675.515 195.559 674.915 195.559C673.595 195.559 671.703 194.268 671.523 192.767C671.402 191.867 673.535 188.504 674.164 187.514C672.994 186.043 672.514 184.451 672.394 183.46C672.183 181.568 673.924 179.978 675.396 179.347C676.207 179.018 677.166 178.867 678.007 178.867C679.268 178.867 681.49 179.168 681.76 181.299C681.91 182.531 680.17 186.103 679.419 187.483L680.199 188.444C681.43 187.963 682.991 187.394 683.831 187.394C684.402 187.394 685.334 187.724 685.452 188.624C685.512 189.074 684.163 190.606 682.902 191.627Z" fill="#273F4A"/>
    <path d="M702.206 191.476C702.235 192.107 702.327 192.857 702.416 193.547C702.446 193.848 702.446 194.148 702.446 194.388C703.467 194.148 704.547 193.607 704.458 192.797C704.396 192.407 703.318 191.777 702.206 191.476ZM707.699 181.78C705.988 181.78 703.978 181.96 702.026 182.229C701.996 183.461 702.086 186.343 702.146 187.813C706.079 186.943 710.943 182.86 710.792 181.96C710.702 181.36 709.38 181.78 707.699 181.78ZM706.83 190.095C707.999 190.936 709.022 191.927 709.11 192.556C709.5 195.949 704.396 197.751 701.484 197.751C700.164 197.751 698.454 196.429 698.064 195.229C697.854 194.539 697.672 193.607 697.522 192.527C696.982 188.144 697.102 179.828 697.943 179.137C698.934 178.297 703.107 177.996 706.23 177.996C708.51 177.996 711.122 178.147 712.383 178.777C713.884 179.499 715.866 181.659 716.046 183.101C716.286 184.961 711.874 188.444 706.83 190.095Z" fill="#273F4A"/>
    <path d="M724.092 195.439C723.731 195.499 723.251 195.53 722.74 195.53C718.448 195.53 717.307 193.248 716.887 189.826C716.677 188.144 716.737 180.939 719.619 180.939C720.369 180.939 722.68 181.75 722.831 183.01C722.831 183.16 722.831 183.34 722.74 183.52C721.691 186.012 721.54 189.464 721.78 191.356C721.84 191.896 721.901 192.376 721.989 192.738C724.241 192.076 727.725 185.172 727.844 180.428C727.875 179.258 729.765 178.778 730.636 178.778C732.557 178.778 732.737 180.098 732.857 180.848C733.397 185.323 728.895 194.658 724.092 195.439Z" fill="#273F4A"/>
    <path d="M743.336 183.37C742.613 183.37 741.895 183.401 741.233 183.43C740.935 184.601 740.784 186.882 740.784 188.324C743.396 187.513 747.959 185.142 748.469 183.91C747.748 183.641 745.859 183.37 743.336 183.37ZM744.625 190.606C745.768 191.205 747.388 191.896 748.588 192.586C748.919 192.768 749.339 193.126 749.4 193.697C749.549 194.749 747.899 195.378 746.877 195.378C745.197 195.378 742.675 192.888 741.173 192.046C741.355 192.708 741.293 193.637 741.324 193.938C741.475 195.26 740.363 195.858 739.673 195.858C738.952 195.858 737.901 195.589 737.271 194.749C736.581 193.817 735.981 191.686 735.74 189.614C735.651 188.985 735.62 188.354 735.591 187.724C735.529 184.601 736.641 180.278 737.151 180.218C738.983 180.008 740.784 179.918 742.405 179.918C745.197 179.918 747.659 180.158 748.829 180.518C750.691 181.089 753.512 182.501 753.752 184.45C754.023 186.882 747.569 189.525 744.625 190.606Z" fill="#273F4A"/>
    <path d="M761.98 198.801C760.058 198.801 757.386 197.151 756.845 196.069C756.216 194.809 755.826 193.488 755.676 192.136C755.014 186.853 758.437 177.637 766.513 177.637C768.222 177.637 769.005 179.108 769.094 179.859C769.124 180.219 769.094 181.54 767.684 181.54C767.562 181.54 767.442 181.509 767.354 181.509C766.121 181.509 762.518 183.611 760.958 187.273C760.389 188.624 760.088 190.216 760.298 191.957C760.417 192.917 760.688 193.937 761.169 195.019C762.4 194.239 765.102 191.716 766.062 188.504C765.312 188.624 765.192 188.984 764.53 188.984C763.541 188.984 762.04 188.055 761.8 187.063C761.709 186.492 766.632 184.211 767.593 184.091C767.804 184.06 768.464 184 769.154 184C770.656 184 771.917 184.932 771.977 185.381C772.426 189.135 765.672 198.801 761.98 198.801Z" fill="#273F4A"/>
    <path d="M784.825 180.038C783.235 180.368 781.613 180.578 780.023 180.969C779.812 182.501 779.512 185.893 779.332 187.993C780.263 187.694 781.164 187.424 782.215 187.424C784.164 187.393 786.687 187.844 786.837 188.985C786.747 190.154 785.096 190.905 784.164 190.905H783.865C782.784 190.905 780.533 191.626 779.423 191.956C779.423 192.046 779.452 192.106 779.452 192.197C779.512 192.646 779.452 193.848 779.512 194.268C780.592 193.998 781.733 193.608 782.875 193.608C784.045 193.608 786.956 194.808 787.048 195.498C787.257 197.24 781.733 198.29 780.173 198.712C779.784 198.83 779.301 198.952 778.881 198.952C775.76 198.952 775.069 195.229 774.799 193.097C774.259 188.624 774.799 184.121 775.369 179.798C775.219 179.438 775.039 179.078 775.009 178.686C774.948 178.237 775.069 177.277 776.18 177.126C777.681 176.916 779.121 176.616 780.412 176.345C781.643 176.106 782.875 175.896 783.775 175.896C784.885 175.896 787.948 177.126 788.039 178.297C788.067 178.748 786.657 179.649 784.825 180.038Z" fill="#273F4A"/>
    <path d="M797.075 183.37C796.352 183.37 795.634 183.401 794.972 183.43C794.674 184.601 794.523 186.882 794.523 188.324C797.135 187.513 801.698 185.142 802.208 183.91C801.488 183.641 799.598 183.37 797.075 183.37ZM798.364 190.606C799.507 191.205 801.127 191.896 802.327 192.586C802.658 192.768 803.079 193.126 803.139 193.697C803.288 194.749 801.638 195.378 800.616 195.378C798.936 195.378 796.415 192.888 794.912 192.046C795.094 192.708 795.032 193.637 795.063 193.938C795.214 195.26 794.102 195.858 793.412 195.858C792.691 195.858 791.64 195.589 791.01 194.749C790.32 193.817 789.72 191.686 789.479 189.614C789.39 188.985 789.359 188.354 789.33 187.724C789.268 184.601 790.38 180.278 790.89 180.218C792.722 180.008 794.523 179.918 796.144 179.918C798.936 179.918 801.398 180.158 802.568 180.518C804.43 181.089 807.251 182.501 807.491 184.45C807.762 186.882 801.308 189.525 798.364 190.606Z" fill="#273F4A"/>
    <path d="M68.4017 52.5161C66.8724 54.6041 65.6684 57.0321 63.9004 58.9268C65.7924 58.8561 67.6111 58.4961 69.3804 58.0428C68.9137 56.2494 68.6337 54.3961 68.4017 52.5161Z" fill="#E64027"/>
    <path d="M39.916 62.8953C44.0467 62.8006 48.1147 62.3953 52.1253 61.7659C57.004 54.8033 61.1893 47.4033 65.6867 40.7673C65.044 36.7699 64.5067 32.7193 64.024 28.6326C55.7307 39.4713 49.2973 52.8313 39.916 62.8953Z" fill="#E64027"/>
    <path d="M15.9458 66.8647C20.0751 66.7914 24.1711 66.5354 28.2325 66.1247C40.4498 50.4434 50.0711 32.3234 61.1671 17.0221C60.6125 12.9994 60.1045 8.94608 59.6285 4.87141C44.5471 24.2461 32.8925 48.6861 15.9458 66.8647Z" fill="#E64027"/>
    <path d="M1.53686 15.229C3.22486 13.2023 4.40752 10.7677 5.98219 8.789C4.21286 8.921 2.48619 9.313 0.776855 9.781C1.13552 11.5343 1.34486 13.3597 1.53686 15.229Z" fill="#E64027"/>
    <path d="M7.98828 50.205C8.39895 54.1636 8.77761 58.1596 9.14028 62.189C25.8536 43.6863 37.4269 19.317 52.5563 0.327635C48.6923 0.554302 44.8483 0.946301 41.0229 1.47697C29.8189 17.5196 20.1536 35.5156 7.98828 50.205Z" fill="#E64027"/>
    <path d="M4.09521 26.8483C4.57255 30.7749 4.97521 34.7683 5.35121 38.8149C14.5365 28.4149 20.9139 15.0696 29.2859 4.55361C25.4205 4.79628 21.5925 5.32028 17.7925 6.04428C13.2059 13.0856 8.97255 20.4243 4.09521 26.8483Z" fill="#E64027"/>
    <path d="M79.7017 117.54C61.2511 123.534 41.6911 128.699 20.8511 129.302C22.1097 98.3735 38.2724 62.6215 68.6937 60.2962C70.8937 80.2455 73.9071 99.6068 79.7017 117.54Z" fill="#AEDADA"/>
    <path d="M90.9593 177.966C57.7687 186.364 28.4727 164.007 24.0073 131.088C42.4127 127.54 60.822 124.386 79.378 122.326C82.314 141.327 85.8647 159.93 90.9593 177.966Z" fill="#F8AB21"/>
    <path d="M147.747 165.512C129.443 169.554 110.791 173.636 91.6071 177.048C89.5431 157.87 87.2245 138.667 83.6885 119.559C113.666 113.87 140.463 137.208 147.747 165.512Z" fill="#AEDADA"/>
    <path d="M198.575 97.5717C179.259 102.437 159.495 107.424 138.915 111.318C137.281 90.289 135.034 69.185 130.439 48.2157C153.846 65.3624 173.999 84.457 198.575 97.5717Z" fill="#AEDADA"/>
    <path d="M62.6641 1.18544C68.5787 34.9601 95.6107 57.7881 129.209 48.1988C119.881 20.7948 93.9974 -4.66656 62.6641 1.18544Z" fill="#E64027"/>
    <path d="M137.607 112.828C107.415 111.983 89.3608 146.169 91.6421 178.245C107.911 175.604 120.613 164.557 128.483 152.723C136.402 140.531 139.489 127.549 137.607 112.828Z" fill="#E64027"/>
    <path d="M133.027 80.8495C128.659 64.5949 113.668 54.7295 98.4082 56.5229C98.9762 66.5709 100.151 76.2162 101.892 86.0815C112.374 83.7655 122.699 82.2775 133.027 80.8495Z" fill="#E64027"/>
    <path d="M133.248 80.5126C134.86 96.3926 126.483 113.649 109.003 115.65C107.969 105.471 106.841 95.5259 104.88 85.9632C114.199 83.4232 123.609 81.2832 133.248 80.5126Z" fill="#E64027"/>
    <path d="M75.521 91.0643C78.0583 106.586 92.3997 119.784 109.749 115.412C106.548 105.638 104.905 95.5777 103.822 85.3803C94.1863 86.643 84.813 88.7803 75.521 91.0643Z" fill="#6E2C22"/>
    <path d="M89.4414 88.4081C90.8547 96.5521 98.6054 102.008 106.749 100.593C114.893 99.1787 120.349 91.4294 118.935 83.2854L89.4414 88.4081Z" fill="#F8AB21"/>
    <path d="M118.934 83.2858C117.521 75.1418 109.77 69.6858 101.626 71.1004C93.4824 72.5151 88.0264 80.2644 89.441 88.4084L118.934 83.2858Z" fill="#F8AB21"/>
    <path d="M590.997 114.628V114.613C591.038 114.609 591.081 114.608 591.122 114.601C591.079 114.612 591.038 114.618 590.997 114.628ZM587.309 114.688C587.174 114.658 587.039 114.636 586.903 114.601C587.037 114.621 587.175 114.622 587.309 114.642V114.688ZM635.023 66.0182L634.967 33.4249C634.967 31.6836 633.555 30.2716 631.814 30.2716H610.959C605.198 30.2716 600.53 34.9422 600.53 40.7009V66.0182H600.525L600.453 102.564C600.453 108.377 595.923 113.104 590.217 113.526H587.809C582.102 113.104 578.149 108.377 578.149 102.564L578.098 71.5262H578.115V40.7009C578.115 34.9422 573.445 30.2716 567.686 30.2716H546.83C545.089 30.2716 543.677 31.6836 543.677 33.4249L543.606 66.0182H543.595V71.5262H543.653C543.643 88.6916 543.635 106.425 543.663 118.072C543.667 119.382 543.627 120.693 543.61 122.002C543.571 124.669 543.546 129.384 544.461 131.889C545.43 134.545 547.385 136.725 549.495 138.606C559.622 147.636 573.637 150.857 587.309 151.006V151.012H587.715C588.005 151.014 588.295 151.022 588.583 151.022V151.012H589.441V151.022C589.73 151.022 590.019 151.014 590.31 151.012H590.997V151.004C604.579 150.812 618.473 147.574 628.53 138.606C630.641 136.725 632.594 134.545 633.565 131.889C634.479 129.384 634.378 124.669 634.417 122.002C634.543 113.165 634.975 90.8396 635.027 73.1796H635.034V66.0182H635.023Z" fill="#E64027"/>
    <path d="M297.289 101.831C297.289 109.69 290.919 116.062 283.059 116.062H269.736C265.704 116.062 262.436 112.793 262.436 108.761V73.7152C262.436 69.6832 265.704 66.4139 269.736 66.4139H283.059C290.917 66.4139 297.289 72.7859 297.289 80.6445V101.831ZM323.051 68.2712C321.816 62.1845 321.508 56.0512 318.783 50.4565C315.568 43.8539 310.168 38.2845 303.537 35.1272C295.469 31.2872 286.2 30.8219 277.264 30.8219C269.76 30.8219 249.653 30.7472 246.079 30.7699L236.82 30.7632C235.177 30.7632 233.845 32.0952 233.845 33.7379L233.848 43.4099C233.86 77.5299 233.964 109.962 233.847 143.626C233.84 145.382 233.891 147.378 235.211 148.537C236.297 149.49 237.88 149.55 239.325 149.561C251.968 149.655 264.269 149.466 276.912 149.561C283.021 149.606 289.516 149.934 295.531 148.871C301.548 147.807 307.488 145.562 312.071 141.522C318.589 135.777 321.588 126.986 322.723 118.373C324.192 107.222 325.132 78.5299 323.051 68.2712Z" fill="#E64027"/>
    <path d="M394.446 100.066C394.446 108.013 388.004 114.456 380.057 114.456C372.11 114.456 365.668 108.013 365.668 100.066V78.6436C365.668 70.6969 372.11 64.2542 380.057 64.2542C388.004 64.2542 394.446 70.6969 394.446 78.6436V100.066ZM421.912 44.1049C417.522 32.7596 409.304 30.2716 403.377 29.3209C399.056 28.6289 384.902 27.7249 380.057 27.6889C375.212 27.7249 361.058 28.6289 356.737 29.3209C350.812 30.2716 342.592 32.7596 338.202 44.1049C336.724 47.9262 336.473 52.0756 336.498 56.1716C336.629 77.4769 336.728 98.5596 336.857 119.866C336.91 128.564 337.358 138.418 343.417 144.661C348.178 149.566 354.606 150.856 361.953 150.856C367.958 150.856 374.008 150.969 380.057 151.022C386.106 150.969 392.156 150.856 398.161 150.856C405.508 150.856 411.936 149.566 416.697 144.661C422.756 138.418 423.204 128.564 423.257 119.866C423.386 98.5596 423.485 77.4769 423.616 56.1716C423.64 52.0756 423.39 47.9262 421.912 44.1049Z" fill="#E64027"/>
    <path d="M800.123 100.066C800.123 108.013 793.681 114.456 785.734 114.456C777.787 114.456 771.345 108.013 771.345 100.066V78.6436C771.345 70.6969 777.787 64.2542 785.734 64.2542C793.681 64.2542 800.123 70.6969 800.123 78.6436V100.066ZM827.589 44.1049C823.199 32.7596 814.981 30.2716 809.054 29.3209C804.733 28.6289 790.579 27.7249 785.734 27.6889C780.887 27.7249 766.735 28.6289 762.414 29.3209C756.489 30.2716 748.269 32.7596 743.879 44.1049C742.401 47.9262 742.15 52.0756 742.175 56.1716C742.306 77.4769 742.405 98.5596 742.534 119.866C742.587 128.564 743.035 138.418 749.094 144.661C753.855 149.566 760.283 150.856 767.63 150.856C773.637 150.856 779.685 150.969 785.734 151.022C791.783 150.969 797.833 150.856 803.838 150.856C811.185 150.856 817.613 149.566 822.374 144.661C828.433 138.418 828.881 128.564 828.933 119.866C829.063 98.5596 829.162 77.4769 829.293 56.1716C829.318 52.0756 829.067 47.9262 827.589 44.1049Z" fill="#E64027"/>
    <path d="M505.535 82.9338C513.742 68.5258 521.949 54.1205 530.154 39.7125C531.106 38.0418 532.085 36.2738 532.081 34.3511C532.07 29.7365 527.542 30.4365 524.35 30.4031C519.574 30.3565 514.798 30.3098 510.022 30.2631C507.971 30.2418 505.803 30.2525 504.035 31.2925C502.315 32.3058 501.262 34.1298 500.285 35.8711C497.534 40.7818 494.785 45.6911 492.034 50.6005C491.039 52.3738 490.061 54.2271 488.513 55.5458C487.566 56.3538 486.218 57.1991 484.835 57.2005C483.453 57.1991 482.106 56.3538 481.159 55.5458C479.611 54.2271 478.633 52.3738 477.638 50.6005C474.887 45.6911 472.137 40.7818 469.386 35.8711C468.41 34.1298 467.357 32.3058 465.637 31.2925C463.869 30.2525 461.701 30.2418 459.65 30.2631C454.873 30.3098 450.097 30.3565 445.321 30.4031C442.13 30.4365 437.601 29.7365 437.591 34.3511C437.589 36.2738 438.566 38.0418 439.517 39.7125C447.723 54.1205 455.93 68.5258 464.135 82.9338C466.243 86.6325 468.373 90.3871 469.43 94.5111C470.779 99.7738 470.303 105.311 469.817 110.723C469.733 111.658 469.627 112.647 469.059 113.394C468.222 114.494 466.681 114.711 465.303 114.816C459.366 115.268 453.394 115.26 447.458 114.788C445.463 114.631 443.099 114.572 441.889 116.166C441.105 117.2 441.091 118.604 441.113 119.902C441.251 128.634 441.39 137.367 441.527 146.1C441.541 146.936 441.566 147.819 442.001 148.534C442.838 149.916 444.746 150.075 446.362 150.078C459.514 150.115 472.179 150.15 484.835 150.186C497.494 150.15 510.157 150.115 523.31 150.078C524.926 150.075 526.833 149.916 527.671 148.534C528.105 147.819 528.131 146.936 528.145 146.1C528.283 137.367 528.422 128.634 528.559 119.902C528.581 118.604 528.567 117.2 527.782 116.166C526.573 114.572 524.207 114.631 522.214 114.788C516.278 115.26 510.305 115.268 504.369 114.816C502.99 114.711 501.449 114.494 500.613 113.394C500.043 112.647 499.939 111.658 499.855 110.723C499.37 105.311 498.891 99.7738 500.242 94.5111C501.298 90.3871 503.429 86.6325 505.535 82.9338Z" fill="#E64027"/>
    <path d="M885.222 135.81C885.222 144.072 878.524 150.77 870.262 150.77C861.999 150.77 855.302 144.072 855.302 135.81C855.302 127.547 861.999 120.85 870.262 120.85C878.524 120.85 885.222 127.547 885.222 135.81ZM856.742 45.2044C856.607 42.5764 856.471 41.1804 856.336 38.5524C856.264 37.1538 856.515 35.5578 857.258 34.0404C859.263 29.9378 866.031 30.7791 870.247 30.8204C873.918 30.8578 881.603 29.8911 883.38 34.1311C883.716 34.9311 884.234 36.8218 884.198 37.6884C883.147 62.9511 882.083 84.7658 881.031 110.031C880.998 110.836 880.911 111.751 880.271 112.244C879.81 112.598 879.186 112.627 878.604 112.642C873.65 112.771 868.696 112.899 863.742 113.027C862.906 113.048 862.008 113.055 861.312 112.588C860.268 111.886 860.103 110.442 860.038 109.186C858.939 87.8578 857.842 66.5311 856.742 45.2044Z" fill="#E64027"/>
    <path d="M709.568 82.6959C717.737 68.3532 725.906 54.0119 734.076 39.6692C735.022 38.0066 735.996 36.2466 735.993 34.3332C735.984 29.7386 731.474 30.4359 728.297 30.4026C723.544 30.3559 718.789 30.3092 714.034 30.2626C711.992 30.2426 709.834 30.2519 708.076 31.2879C706.362 32.2972 705.314 34.1119 704.341 35.8466C701.602 40.7332 698.865 45.6199 696.126 50.5079C695.137 52.2732 694.162 54.1186 692.622 55.4319C691.678 56.2359 690.338 57.0786 688.962 57.0786C687.585 57.0786 686.245 56.2359 685.301 55.4319C683.761 54.1186 682.786 52.2732 681.797 50.5079C679.058 45.6199 676.32 40.7332 673.582 35.8466C672.61 34.1119 671.561 32.2972 669.848 31.2879C668.089 30.2519 665.932 30.2426 663.889 30.2626C659.134 30.3092 654.38 30.3559 649.625 30.4026C646.448 30.4359 641.941 29.7386 641.93 34.3332C641.926 36.2466 642.901 38.0066 643.848 39.6692C652.017 54.0119 660.186 68.3532 668.356 82.6959C670.453 86.3786 672.574 90.1159 673.625 94.2199C674.968 99.4612 674.494 104.972 674.01 110.36C673.926 111.291 673.822 112.276 673.256 113.019C672.424 114.113 670.889 114.331 669.517 114.433C663.606 114.885 657.661 114.876 651.753 114.408C649.766 114.249 647.413 114.193 646.209 115.779C645.428 116.807 645.414 118.205 645.436 119.496C645.573 128.191 645.71 136.883 645.849 145.577C645.862 146.409 645.888 147.287 646.32 148C647.153 149.375 649.052 149.533 650.661 149.539C663.754 149.573 676.362 149.608 688.962 149.643C701.562 149.608 714.169 149.573 727.262 149.539C728.872 149.533 730.769 149.375 731.604 148C732.036 147.287 732.061 146.409 732.074 145.577C732.212 136.883 732.35 128.191 732.488 119.496C732.508 118.205 732.496 116.807 731.714 115.779C730.51 114.193 728.156 114.249 726.172 114.408C720.262 114.876 714.317 114.885 708.406 114.433C707.034 114.331 705.501 114.113 704.666 113.019C704.101 112.276 703.997 111.291 703.913 110.36C703.429 104.972 702.954 99.4612 704.297 94.2199C705.35 90.1159 707.47 86.3786 709.568 82.6959Z" fill="#E64027"/>
</svg>
